<?xml version="1.0" standalone="no"?>
<!DOCTYPE svg PUBLIC "-//W3C//DTD SVG 20010904//EN"
 "http://www.w3.org/TR/2001/REC-SVG-20010904/DTD/svg10.dtd">
<svg version="1.0" xmlns="http://www.w3.org/2000/svg"
 width="849.000000pt" height="849.000000pt" viewBox="0 0 849.000000 849.000000"
 preserveAspectRatio="xMidYMid meet">
<metadata>
Created by potrace 1.11, written by Peter Selinger 2001-2013
</metadata>
<g transform="translate(0.000000,849.000000) scale(0.100000,-0.100000)"
fill="#000000" stroke="none">
<path d="M4649 8483 c-8 -2 -75 -4 -149 -5 l-135 -3 1 -40 c1 -22 2 -119 4
-214 2 -96 5 -182 7 -191 3 -13 14 -16 46 -13 23 1 125 4 227 6 l185 3 -1 55
c-1 30 -3 133 -5 229 l-4 176 -80 -1 c-45 0 -88 -1 -96 -2z"/>
<path d="M3875 8149 c-16 -5 -45 -11 -63 -14 -19 -3 -37 -7 -41 -10 -4 -2 -18
-6 -32 -8 -84 -16 -265 -60 -272 -66 -4 -4 4 -57 18 -117 15 -60 33 -140 41
-179 8 -38 19 -87 25 -108 12 -46 -12 -47 249 12 197 45 213 50 206 67 -3 7
-26 107 -52 221 -25 115 -47 208 -48 209 0 1 -14 -3 -31 -7z"/>
<path d="M5951 7599 c-46 -116 -81 -212 -79 -213 7 -7 421 -167 423 -164 1 2
30 75 65 163 34 88 71 180 81 204 25 57 25 56 -13 71 -18 7 -46 19 -63 25 -92
38 -316 125 -323 125 -5 0 -46 -95 -91 -211z"/>
<path d="M5209 7743 c-1 -10 -3 -27 -5 -38 -10 -61 -16 -95 -24 -135 -5 -25
-12 -61 -15 -80 -2 -19 -7 -46 -10 -60 -2 -14 -8 -46 -13 -71 l-9 -46 66 -12
c36 -6 107 -19 156 -27 50 -9 121 -22 160 -30 38 -7 70 -12 71 -11 2 2 61 331
70 392 3 22 8 43 10 47 6 10 -6 15 -48 22 -21 3 -111 19 -200 36 -192 35 -208
36 -209 13z"/>
<path d="M4683 7713 c-5 -1 -73 -4 -153 -5 l-145 -3 3 -215 c2 -118 5 -222 8
-230 3 -13 20 -15 92 -13 48 2 148 5 222 7 74 2 138 5 142 5 3 1 4 9 2 19 -2
9 -6 109 -8 222 -2 113 -5 207 -5 210 -1 5 -141 8 -158 3z"/>
<path d="M2178 7556 l-186 -133 125 -174 c68 -96 129 -179 136 -186 9 -9 53
18 191 118 98 71 181 131 184 133 3 4 -229 337 -257 368 -4 4 -90 -52 -193
-126z"/>
<path d="M3210 7421 c-245 -109 -320 -144 -320 -152 0 -3 16 -42 36 -85 59
-128 89 -195 119 -261 15 -35 30 -63 34 -63 14 -1 411 184 411 191 0 4 -17 45
-39 91 -38 81 -59 128 -116 256 -15 34 -30 62 -34 61 -3 0 -44 -17 -91 -38z"/>
<path d="M7275 7276 c-82 -85 -151 -158 -152 -163 -2 -5 69 -80 158 -166 l160
-157 160 161 c87 89 159 164 159 166 0 9 -316 313 -325 313 -5 0 -77 -69 -160
-154z"/>
<path d="M6570 7086 c-39 -61 -96 -148 -125 -193 l-53 -81 159 -104 c87 -56
174 -113 193 -125 l33 -22 73 112 c41 62 97 148 126 193 l52 80 -122 79 c-66
44 -153 101 -192 126 l-72 47 -72 -112z"/>
<path d="M4460 6939 c-159 -14 -252 -27 -261 -37 -4 -4 4 -50 17 -102 13 -52
23 -100 24 -106 0 -10 -14 -15 -80 -30 -12 -3 -271 -62 -346 -79 -19 -4 -23 4
-44 103 -13 59 -24 108 -25 109 -3 5 -169 -54 -258 -91 -135 -56 -416 -201
-462 -239 -5 -4 -18 -13 -29 -21 -17 -12 -14 -19 59 -120 42 -59 76 -108 74
-110 -2 -1 -87 -62 -187 -134 l-184 -132 -69 98 c-39 53 -74 98 -78 100 -9 3
-194 -177 -271 -264 -151 -171 -300 -385 -413 -594 l-46 -86 237 -92 c131 -51
242 -92 248 -92 6 0 18 15 27 34 76 160 274 423 452 601 268 268 541 448 891
588 87 35 263 93 308 101 12 2 39 9 61 14 88 24 260 50 379 59 165 11 488 5
537 -11 8 -3 34 -7 59 -10 175 -21 416 -88 606 -167 521 -217 937 -571 1243
-1056 18 -29 35 -53 37 -53 5 0 432 188 455 201 20 10 19 11 -7 57 -181 316
-472 653 -759 880 l-51 40 -67 -104 -68 -105 -28 18 c-203 131 -350 229 -351
235 0 4 30 53 66 108 36 56 64 103 62 104 -29 20 -241 120 -331 157 -172 71
-423 148 -562 173 -142 26 -176 32 -250 40 -27 4 -70 9 -95 12 -72 9 -427 11
-520 3z"/>
<path d="M7922 6698 c-86 -88 -159 -161 -161 -164 -3 -3 69 -77 159 -165 l163
-160 159 158 c87 87 158 162 158 166 0 5 -72 80 -160 166 l-160 158 -158 -159z"/>
<path d="M1028 6445 l-117 -194 45 -31 c25 -16 46 -30 48 -30 1 0 69 -40 151
-90 l148 -89 119 195 c66 108 118 197 116 199 -8 7 -386 235 -389 235 -2 -1
-57 -88 -121 -195z"/>
<path d="M1945 6587 c-20 -23 -83 -91 -139 -151 -128 -138 -130 -141 -112
-158 12 -12 168 -157 266 -246 25 -23 49 -42 54 -42 5 0 17 10 28 22 26 31
108 119 182 198 33 36 70 75 80 88 l20 23 -45 41 c-24 23 -71 66 -104 97 -34
31 -85 79 -115 107 -30 27 -60 53 -66 57 -6 3 -28 -13 -49 -36z"/>
<path d="M7645 6057 c-83 -56 -165 -112 -182 -125 l-32 -23 126 -187 c69 -103
127 -188 128 -189 0 -1 87 55 192 125 l192 128 -126 187 c-69 103 -130 187
-137 186 -6 0 -79 -46 -161 -102z"/>
<path d="M1380 5873 c-52 -86 -105 -173 -117 -194 l-23 -37 38 -22 c20 -13 51
-30 67 -40 17 -9 88 -52 158 -95 74 -45 132 -74 136 -69 5 5 59 92 120 194 86
143 108 187 98 196 -18 16 -365 224 -374 224 -5 0 -51 -71 -103 -157z"/>
<path d="M3545 5855 c-420 -264 -736 -623 -934 -1064 -73 -163 -157 -436 -176
-576 -24 -175 -31 -280 -29 -430 3 -238 21 -379 71 -565 14 -52 26 -102 28
-110 7 -31 67 -195 100 -268 212 -482 582 -884 1048 -1141 43 -24 80 -41 81
-40 2 2 35 87 74 188 l70 184 -47 24 c-71 38 -216 137 -298 205 -407 332 -670
822 -721 1343 -13 134 -4 487 13 515 2 3 6 27 9 54 3 26 8 51 10 54 2 4 7 23
10 44 12 76 89 288 150 413 160 327 377 578 676 780 63 43 116 79 117 80 3 2
-152 353 -159 360 -2 3 -44 -20 -93 -50z"/>
<path d="M4314 5193 c-121 -69 -237 -136 -259 -149 -22 -13 -78 -45 -123 -71
-106 -61 -147 -84 -370 -213 -100 -58 -182 -107 -182 -110 0 -4 425 -253 663
-389 23 -13 98 -56 167 -96 69 -40 169 -97 222 -128 l97 -56 383 220 c211 122
401 231 423 244 22 12 75 43 118 69 43 25 80 46 83 46 2 0 27 15 56 33 29 19
61 36 71 40 23 9 21 22 -5 35 -13 6 -45 25 -73 41 -27 16 -66 38 -85 49 -19
11 -132 75 -250 144 -118 68 -271 157 -340 197 -69 40 -132 76 -140 81 -87 52
-153 90 -156 90 -3 0 -22 11 -43 24 l-39 25 -218 -126z"/>
<path d="M1652 4588 c-23 -88 -49 -209 -58 -268 -3 -19 -7 -46 -9 -60 -3 -14
-7 -47 -10 -75 -3 -27 -8 -68 -11 -90 -3 -22 -6 -139 -8 -260 l-3 -220 -249
-62 c-137 -34 -254 -63 -260 -63 -7 0 -38 104 -73 247 l-61 247 23 25 c43 47
59 83 64 140 8 82 -10 134 -65 191 -113 116 -297 93 -377 -48 -22 -37 -27 -60
-27 -112 -1 -104 54 -186 152 -228 l45 -19 34 -139 c19 -76 36 -143 37 -149 1
-5 10 -39 19 -75 9 -36 18 -72 20 -80 20 -101 60 -237 69 -235 6 2 76 20 156
39 80 19 228 55 329 80 102 25 186 44 187 43 1 -1 4 -24 8 -52 8 -66 13 -96
32 -183 9 -41 14 -76 11 -78 -4 -4 -228 -72 -302 -91 -11 -3 -63 -18 -115 -33
-52 -15 -104 -30 -115 -33 -11 -3 -114 -33 -230 -67 -116 -33 -218 -63 -227
-65 -13 -3 -20 6 -27 33 -20 76 -43 167 -46 182 -3 16 -23 94 -30 120 -2 8
-11 45 -19 82 l-16 67 35 46 c159 208 -71 484 -298 357 -97 -54 -142 -156
-117 -261 18 -77 58 -124 135 -161 37 -18 64 -34 61 -37 -2 -3 -1 -16 5 -30 5
-13 11 -36 14 -51 8 -43 144 -584 148 -588 3 -3 138 32 212 55 17 6 134 40
260 76 127 37 340 98 473 137 134 38 247 66 251 62 4 -5 29 -71 55 -148 50
-147 50 -140 1 -168 -11 -6 -85 -54 -165 -106 l-144 -94 -48 17 c-103 37 -201
14 -268 -62 -107 -121 -67 -308 79 -375 150 -68 326 39 335 205 l2 51 130 83
c71 46 146 95 168 109 21 13 40 23 41 22 1 -2 26 -49 55 -106 32 -61 50 -106
44 -111 -5 -5 -151 -120 -324 -255 -173 -136 -324 -254 -334 -263 -17 -14 -86
-67 -160 -125 -22 -17 -23 -16 -137 140 -200 274 -188 255 -172 286 8 16 15
53 16 84 3 208 -233 321 -390 187 -110 -94 -113 -261 -7 -355 50 -44 96 -61
160 -61 l53 0 206 -285 c114 -157 211 -284 215 -282 5 2 225 173 490 381 264
208 486 380 493 382 7 2 40 -35 74 -83 l62 -87 -44 -40 c-23 -22 -107 -94
-185 -160 -79 -66 -159 -134 -179 -151 -20 -17 -128 -109 -241 -204 -113 -94
-218 -183 -233 -197 -48 -42 -150 -127 -179 -150 l-28 -21 68 -63 c37 -35 112
-104 167 -154 54 -49 108 -99 120 -110 40 -38 140 -130 238 -220 l97 -89 -4
-51 c-8 -112 37 -195 133 -243 47 -24 70 -29 110 -26 95 6 168 55 210 139 30
60 24 166 -12 222 -55 86 -151 128 -254 110 l-54 -9 -62 58 c-90 85 -190 177
-427 392 l-35 32 41 38 c35 32 128 111 479 407 39 33 145 122 234 198 l163
138 114 -116 c63 -64 114 -118 114 -120 0 -2 -87 -77 -192 -165 -106 -89 -202
-169 -213 -178 -11 -10 -71 -60 -132 -111 -110 -92 -123 -106 -104 -113 5 -1
33 -24 63 -49 29 -26 172 -149 318 -274 l265 -228 1 -66 c2 -105 38 -169 122
-218 39 -23 58 -27 117 -27 76 0 108 13 163 63 118 109 87 310 -59 387 -36 19
-131 25 -184 11 -28 -7 -43 4 -270 199 -132 114 -241 210 -243 214 -2 5 6 14
16 22 11 7 43 33 72 58 29 25 134 113 234 197 l181 151 60 -47 c158 -125 503
-336 520 -319 7 7 185 464 185 475 0 4 -28 23 -63 42 -261 142 -570 402 -761
641 -68 85 -195 271 -236 345 -142 254 -246 532 -296 790 -4 22 -8 42 -9 45
-1 3 -5 30 -9 60 -5 30 -10 62 -11 70 -9 50 -19 224 -19 335 1 123 12 323 19
335 2 3 6 28 9 55 6 56 12 89 27 155 6 25 12 52 14 60 2 8 6 27 10 42 8 31 3
35 -117 78 -46 17 -92 35 -103 40 -21 10 -254 100 -259 100 -2 0 -13 -37 -24
-82z"/>
<path d="M3263 3791 l0 -668 166 -95 c320 -184 867 -500 924 -534 32 -19 60
-34 63 -34 2 0 4 300 4 668 l-1 667 -87 49 c-48 28 -198 114 -334 193 -136 78
-262 151 -280 161 -18 11 -109 63 -203 117 -93 54 -188 109 -211 122 l-41 23
0 -669z"/>
<path d="M5690 4399 c-58 -34 -123 -71 -145 -84 -22 -12 -125 -72 -230 -132
-104 -61 -266 -154 -360 -208 -171 -98 -307 -177 -313 -181 -5 -3 -4 -1325 1
-1330 2 -2 103 53 223 122 120 70 336 194 479 277 143 82 303 175 356 205 l96
55 0 669 c0 367 -1 668 -1 668 -1 0 -48 -27 -106 -61z"/>
<path d="M5085 1369 c-60 -16 -128 -31 -150 -35 -22 -3 -42 -7 -45 -9 -3 -1
-30 -6 -61 -9 -31 -4 -67 -9 -80 -11 -165 -32 -542 -22 -774 20 -117 21 -136
25 -179 36 -21 6 -42 7 -46 2 -11 -12 -180 -453 -180 -469 0 -7 17 -18 38 -23
51 -14 199 -47 242 -55 19 -3 45 -8 58 -11 51 -10 174 -25 258 -32 164 -13
535 -7 630 11 10 2 42 7 69 10 86 12 119 17 165 28 25 5 54 11 65 14 11 2 34
6 50 10 36 7 267 72 271 76 1 2 -41 110 -94 241 -69 169 -101 237 -112 236 -8
-1 -64 -14 -125 -30z"/>
</g>
</svg>
